<svg xmlns="http://www.w3.org/2000/svg" width="19.999" height="20.794" viewBox="0 0 19.999 20.794">
  <path id="패스_3333" data-name="패스 3333" d="M1284.46,1225.918h-.943a.821.821,0,0,1-.905-.909v-.939c-.283-.284-.568-.566-.851-.851a.416.416,0,0,1-.106-.266q-.006-5.614,0-11.228,0,6.622,0,13.245a1.742,1.742,0,0,0,1,1.72,2.049,2.049,0,0,0,.852.184c.686,0,1.371,0,2.057,0a.413.413,0,0,1-.252-.1C1285.027,1226.487,1284.745,1226.2,1284.46,1225.918Z" transform="translate(-1281.651 -1206.084)" fill="#694935"/>
  <path id="패스_3344" data-name="패스 3344" d="M1326.711,1211.726q0,5.613,0,11.228a.416.416,0,0,1-.106.266c-.283.285-.568.566-.851.851v.939a.821.821,0,0,1-.906.909h-.943c-.285.283-.567.569-.852.852a.413.413,0,0,1-.252.1c.686,0,1.371,0,2.057,0a2.049,2.049,0,0,0,.852-.184,1.742,1.742,0,0,0,1-1.72Q1326.708,1218.349,1326.711,1211.726Z" transform="translate(-1306.714 -1206.084)" fill="#694935"/>
  <path id="패스_3360" data-name="패스 3360" d="M1281.763,1213.977c.279.28.56.558.839.838V1213.3c0-.007,0-.01,0-.017v-10.743h18.108v10.743c0,.007,0,.01,0,.017v1.511c.279-.28.56-.557.839-.838a.408.408,0,0,0,.1-.262q.006-5.528,0-11.056,0-1.574,0-3.148c0-.056,0-.112-.006-.167s-.005-.136-.014-.2c0-.025-.01-.049-.014-.074a1.972,1.972,0,0,0-.051-.228c-.014-.045-.033-.089-.051-.133s-.029-.079-.047-.116a1.744,1.744,0,0,0-.543-.637c-.011-.007-.021-.017-.032-.024s-.054-.03-.081-.046a1.96,1.96,0,0,0-.484-.2,1.692,1.692,0,0,0-.274-.044c-.279-.017-.56,0-.857,0a.648.648,0,0,0-.435-.808h-.282a.645.645,0,0,0-.441.777h-.008v0h-2.3v0h0c0-.007,0-.014,0-.021a.642.642,0,0,0-.464-.756h-.283a.653.653,0,0,0-.434.779h-2.311v-.006h-.009a.642.642,0,0,0-.417-.773h-.323a.642.642,0,0,0-.417.773h-.009v.006h-2.311a.653.653,0,0,0-.434-.779h-.283c-.392.188-.49.343-.464.756,0,.007,0,.013,0,.021h0v0h-2.3v0h-.007a.645.645,0,0,0-.441-.777h-.282a.647.647,0,0,0-.435.808c-.3,0-.578-.015-.857,0a1.688,1.688,0,0,0-.274.044,1.957,1.957,0,0,0-.484.2c-.027.016-.055.029-.081.046s-.021.017-.032.024a1.746,1.746,0,0,0-.544.637c-.018.038-.032.077-.047.116s-.036.087-.051.133a1.874,1.874,0,0,0-.051.228c0,.025-.011.049-.014.074-.009.065-.011.134-.014.2s-.006.112-.006.167q0,1.574,0,3.148,0,5.528,0,11.056A.408.408,0,0,0,1281.763,1213.977Z" transform="translate(-1281.653 -1196.827)" fill="#694935"/>
  <path id="패스_3361" data-name="패스 3361" d="M1303.1,1247.432h-14.382c.279.283.556.569.836.852a.4.4,0,0,0,.247.1q3.054,0,6.108,0t6.107,0a.4.4,0,0,0,.247-.1C1302.544,1248,1302.821,1247.715,1303.1,1247.432Z" transform="translate(-1285.909 -1227.597)" fill="#694935"/>
</svg>
