<svg xmlns="http://www.w3.org/2000/svg" width="20" height="20.799" viewBox="0 0 20 20.799">
  <path id="패스_3314" data-name="패스 3314" d="M1506.8,1461.111a2.7,2.7,0,0,0-.543-.054c-.181-.009-.362,0-.563,0a.647.647,0,0,0-.444-.794h-.284a.645.645,0,0,0-.441.778h-2.309a.637.637,0,0,0-.459-.778h-.284a.654.654,0,0,0-.434.78h-2.312a.652.652,0,0,0-.423-.78h-.325a.643.643,0,0,0-.417.774h-2.316a.652.652,0,0,0-.436-.774h-.284a.648.648,0,0,0-.463.781h-2.3a.651.651,0,0,0-.447-.781h-.284a.648.648,0,0,0-.435.809c-.3,0-.578-.015-.857,0a1.722,1.722,0,0,0-1.585,1.552c-.01.108-.012.216-.012.325q0,8.112,0,16.224a1.719,1.719,0,0,0,.991,1.7,2.022,2.022,0,0,0,.841.181q7.147.016,14.294,0a.411.411,0,0,0,.262-.106q1.759-1.745,3.5-3.5a.408.408,0,0,0,.1-.263q.008-7.148,0-14.295A1.723,1.723,0,0,0,1506.8,1461.111Zm.394,5.1v10.542c0,.275-.116.391-.388.393-.467,0-.935-.01-1.4.014a1.229,1.229,0,0,0-1.168,1.206c-.015.46,0,.921-.006,1.381a.325.325,0,0,1-.356.363q-6.947,0-13.893,0a.81.81,0,0,1-.893-.9q0-6.52,0-13.04v-.183H1507.2Z" transform="translate(-1488.141 -1460.26)" fill="#694935"/>
</svg>
